# xmcd
#
# Track frame offsets:
#	150
#	21556
#	37782
#	57764
#	71911
#	88733
#	106991
#	130470
#	142392
#	160294
#	177328
#	194215
#	217848
#	234828
#
# Disc length: 3294 seconds
#
# Revision: 1
# Processed by: cddbd v1.5.2PL0 Copyright (c) Steve Scherf et al.
# Submitted via: audiograbber 1.83.01
#
DISCID=d20cdc0e
DTITLE=Various Artist - SD163
DYEAR=2008
DGENRE=Karaoke
TTITLE0=Alan Jackson - Small Town Southern Man
TTITLE1=Sugarland and Beyonce - Irreplaceable
TTITLE2=Tim McGraw - Suspicions
TTITLE3=Big and Rich - Loud
TTITLE4=Terri Clark - In My Next Life
TTITLE5=Phil Vassar - Love Is A Beautiful Thing
TTITLE6=Eric Church - Lightning
TTITLE7=Miranda Lambert - Gunpowder And Lead
TTITLE8=James Otto - Just Got Started Lovin' You
TTITLE9=Carter's Chord - Young Love
TTITLE10=Bomshel - The Power Of One
TTITLE11=Dwight Yoakam - Close Up The Honky Tonks
TTITLE12=Keith Urban - Romeo's Tune
TTITLE13=Garth Brooks - Workin' For A Livin'
EXTD=
EXTT0=
EXTT1=
EXTT2=
EXTT3=
EXTT4=
EXTT5=
EXTT6=
EXTT7=
EXTT8=
EXTT9=
EXTT10=
EXTT11=
EXTT12=
EXTT13=
PLAYORDER=
